<svg width="101" height="74" viewBox="0 0 101 74" fill="none" xmlns="http://www.w3.org/2000/svg">
<path fill-rule="evenodd" clip-rule="evenodd" d="M32 69C49.6731 69 64 54.6731 64 37C64 19.3269 49.6731 5 32 5C14.3269 5 0 19.3269 0 37C0 54.6731 14.3269 69 32 69Z" fill="#1CBAEB"/>
<g clip-path="url(#clip0)">
<path d="M99.9025 29.6035C100.509 29.6035 101 29.1118 101 28.5054V15.5399C101 15.2492 100.884 14.9697 100.679 14.7636L86.2364 0.321808C86.0303 0.115738 85.7508 0 85.4601 0H44.2873C43.6809 0 43.1898 0.49118 43.1898 1.09753V30.9178H32.9608C32.3544 30.9178 31.8633 31.4096 31.8633 32.0154V35.7811H28.0975C27.4912 35.7811 27 36.2723 27 36.8786V44.869C27 45.4754 27.4912 45.9671 28.0975 45.9671C28.7039 45.9671 29.1951 45.4754 29.1951 44.869V37.9762H79.7545V66.4313H29.1951V49.2603C29.1951 48.654 28.7039 48.1628 28.0975 48.1628C27.4912 48.1628 27 48.654 27 49.2603V67.5288C27 68.1352 27.4912 68.6264 28.0975 68.6264H43.1898V72.8121C43.1898 73.4179 43.6809 73.9097 44.2873 73.9097H99.9025C100.509 73.9097 101 73.4179 101 72.8121V32.8967C101 32.2903 100.509 31.7991 99.9025 31.7991C99.2961 31.7991 98.8049 32.2903 98.8049 32.8967V71.714H45.3848V68.6264H80.852C81.4584 68.6264 81.9495 68.1352 81.9495 67.5288V63.7631H85.7147C86.321 63.7631 86.8122 63.2714 86.8122 62.665V32.0154C86.8122 31.4096 86.321 30.9178 85.7147 30.9178H45.3848V2.19563H84.362V15.5399C84.362 16.1457 84.8531 16.6375 85.4595 16.6375H98.8049V28.5054C98.8049 29.1118 99.2961 29.6035 99.9025 29.6035ZM84.6172 61.5675H81.9495V36.8786C81.9495 36.2723 81.4584 35.7811 80.852 35.7811H34.0583V33.1129H84.6172V61.5675ZM86.5576 3.74765L97.2518 14.4418H86.5576V3.74765Z" fill="#333333"/>
<path d="M71.6748 41.4878C71.6748 40.8814 71.1836 40.3903 70.5772 40.3903H38.3722C37.7664 40.3903 37.2746 40.8814 37.2746 41.4878C37.2746 44.0064 35.2258 46.0558 32.7072 46.0558C32.1009 46.0558 31.6091 46.547 31.6091 47.1533V57.2541C31.6091 57.8605 32.1009 58.3522 32.7072 58.3522C35.2258 58.3522 37.2746 60.4011 37.2746 62.9196C37.2746 63.526 37.7664 64.0172 38.3722 64.0172H63.3829C63.9892 64.0172 64.4804 63.526 64.4804 62.9196C64.4804 62.3133 63.9892 61.8221 63.3829 61.8221H39.3811C38.9136 58.9704 36.6559 56.7133 33.8048 56.2458V48.1616C36.6559 47.6942 38.9136 45.437 39.3811 42.5853H69.5683C70.0358 45.437 72.2935 47.6942 75.1452 48.1616V56.2458C72.2935 56.7133 70.0358 58.9704 69.5683 61.8221H67.7736C67.1672 61.8221 66.676 62.3133 66.676 62.9196C66.676 63.526 67.1672 64.0172 67.7736 64.0172H70.5772C71.1836 64.0172 71.6748 63.526 71.6748 62.9196C71.6748 60.4011 73.7236 58.3522 76.2428 58.3522C76.8491 58.3522 77.3403 57.8605 77.3403 57.2541V47.1533C77.3403 46.547 76.8491 46.0558 76.2428 46.0558C73.7242 46.0558 71.6748 44.0064 71.6748 41.4878Z" fill="#333333"/>
<path d="M47.6692 52.2034C47.6692 55.9562 50.7218 59.0094 54.4751 59.0094C58.2279 59.0094 61.2811 55.9562 61.2811 52.2034C61.2811 48.4507 58.2279 45.3975 54.4751 45.3975C50.7218 45.3975 47.6692 48.4507 47.6692 52.2034ZM59.0855 52.2034C59.0855 54.7457 57.0174 56.8143 54.4751 56.8143C51.9329 56.8143 49.8643 54.7457 49.8643 52.2034C49.8643 49.6612 51.9329 47.5931 54.4751 47.5931C57.0174 47.5931 59.0855 49.6612 59.0855 52.2034Z" fill="#333333"/>
<path d="M71.0972 52.204C71.0972 51.5976 70.606 51.1059 69.9996 51.1059H66.4874C65.8811 51.1059 65.3899 51.5976 65.3899 52.204C65.3899 52.8098 65.8811 53.3015 66.4874 53.3015H69.9996C70.606 53.3015 71.0972 52.8098 71.0972 52.204Z" fill="#333333"/>
<path d="M38.9498 51.1059C38.3435 51.1059 37.8523 51.5976 37.8523 52.204C37.8523 52.8098 38.3435 53.3015 38.9498 53.3015H42.4621C43.0684 53.3015 43.5602 52.8098 43.5602 52.204C43.5602 51.5976 43.0684 51.1059 42.4621 51.1059H38.9498Z" fill="#333333"/>
<path d="M75.8232 42.5012C76.7101 42.8767 77.6163 41.9479 77.2555 41.0683C77.0737 40.6257 76.6102 40.3502 76.1348 40.3959C75.66 40.4411 75.258 40.8064 75.166 41.2733C75.0649 41.7837 75.3461 42.3002 75.8232 42.5012Z" fill="#333333"/>
<path d="M77.2553 62.4996C76.899 61.6064 75.5937 61.6262 75.2284 62.4996C75.041 62.9473 75.1833 63.4803 75.5621 63.7812C75.915 64.0606 76.4186 64.0911 76.8036 63.8619C77.2637 63.5886 77.4647 62.9941 77.2553 62.4996Z" fill="#333333"/>
<path d="M33.7208 41.0683C33.5537 40.6629 33.146 40.3903 32.7068 40.3903C32.2467 40.3903 31.83 40.6872 31.6742 41.1186C31.5218 41.5392 31.6511 42.027 31.9904 42.3183C32.3664 42.6418 32.9259 42.6706 33.3335 42.3877C33.7547 42.0964 33.9105 41.5414 33.7208 41.0683Z" fill="#333333"/>
<path d="M31.6313 63.1342C31.8085 64.0776 33.0946 64.3204 33.6203 63.5283C33.8833 63.1309 33.8585 62.5923 33.5548 62.2236C33.2567 61.8611 32.7497 61.7296 32.3121 61.8967C31.8215 62.0841 31.5262 62.6182 31.6313 63.1342Z" fill="#333333"/>
<path d="M79.2289 19.2701C79.8353 19.2701 80.3264 18.7789 80.3264 18.1725C80.3264 17.5662 79.8353 17.075 79.2289 17.075H64.9598C64.3535 17.075 63.8623 17.5662 63.8623 18.1725C63.8623 18.7789 64.3535 19.2701 64.9598 19.2701H79.2289Z" fill="#333333"/>
<path d="M51.7183 24.5387C51.7183 25.145 52.2094 25.6362 52.8158 25.6362H91.3729C91.9792 25.6362 92.4704 25.145 92.4704 24.5387C92.4704 23.9323 91.9792 23.4412 91.3729 23.4412H52.8158C52.2094 23.4412 51.7183 23.9323 51.7183 24.5387Z" fill="#333333"/>
</g>
<defs>
<clipPath id="clip0">
<rect width="74" height="74" fill="white" transform="translate(27)"/>
</clipPath>
</defs>
</svg>
