<svg width="101" height="74" viewBox="0 0 101 74" fill="none" xmlns="http://www.w3.org/2000/svg">
<path fill-rule="evenodd" clip-rule="evenodd" d="M32 69C49.6731 69 64 54.6731 64 37C64 19.3269 49.6731 5 32 5C14.3269 5 0 19.3269 0 37C0 54.6731 14.3269 69 32 69Z" fill="#1CBAEB"/>
<g clip-path="url(#clip0)">
<path d="M95.3701 6.82854H88.6256V5.38492C88.6256 2.41582 86.2104 0 83.2413 0C80.2716 0 77.8558 2.41582 77.8558 5.38492V6.82854H50.1431V5.38492C50.1431 2.41582 47.7272 0 44.7581 0C41.789 0 39.3732 2.41582 39.3732 5.38492V6.82854H32.6283C29.5248 6.82854 27 9.35332 27 12.4568V64.7314C27 69.8419 31.1575 74 36.2681 74H80.9982C81.6051 74 82.0975 73.5077 82.0975 72.9008C82.0975 72.2939 81.6051 71.8021 80.9982 71.8021H36.2681C32.3697 71.8021 29.1979 68.6303 29.1979 64.7319V26.3171C30.1486 27.0505 31.3382 27.488 32.6283 27.488H35.5053C36.1122 27.488 36.6046 26.9963 36.6046 26.3894C36.6046 25.7825 36.1122 25.2901 35.5053 25.2901H32.6283C30.7369 25.2901 29.1979 23.7505 29.1979 21.8587V12.4568C29.1979 10.5655 30.7369 9.02643 32.6283 9.02643H39.3732V13.5317C39.3732 16.5008 41.789 18.9167 44.7581 18.9167C47.7278 18.9167 50.1431 16.5008 50.1431 13.5317V9.02643H77.8564V13.5317C77.8564 16.5008 80.2722 18.9167 83.2413 18.9167C86.211 18.9167 88.6262 16.5008 88.6262 13.5317V9.02643H95.3706C97.2631 9.02643 98.8027 10.5655 98.8027 12.4568V21.8587C98.8027 23.7511 97.2631 25.2901 95.3706 25.2901H39.9017C39.2948 25.2901 38.803 25.7825 38.803 26.3894C38.803 26.9963 39.2948 27.4886 39.9017 27.4886H95.3701C96.6612 27.4886 97.8514 27.0505 98.8021 26.3171V64.7319C98.8021 68.6303 95.6298 71.8021 91.7302 71.8021H85.3946C84.7877 71.8021 84.2959 72.2939 84.2959 72.9008C84.2959 73.5077 84.7877 74 85.3946 74H91.7302C96.8419 74 101 69.8425 101 64.7319V12.4568C101 9.35332 98.4747 6.82854 95.3701 6.82854ZM47.9452 13.5317C47.9452 15.2887 46.5157 16.7188 44.7581 16.7188C43.0006 16.7188 41.5711 15.2893 41.5711 13.5317V7.93172C41.5711 7.93059 41.5711 7.92889 41.5711 7.92776C41.5711 7.92607 41.5711 7.92494 41.5711 7.92325V5.38492C41.5711 3.62796 43.0006 2.19789 44.7581 2.19789C46.5157 2.19789 47.9452 3.6274 47.9452 5.38492V13.5317ZM86.4277 13.5317C86.4277 15.2887 84.9982 16.7188 83.2407 16.7188C81.4838 16.7188 80.0537 15.2893 80.0537 13.5317V7.93285C80.0537 7.93115 80.0543 7.92946 80.0543 7.9272C80.0543 7.92551 80.0537 7.92381 80.0537 7.92155V5.38492C80.0537 3.62796 81.4838 2.19789 83.2407 2.19789C84.9982 2.19789 86.4277 3.6274 86.4277 5.38492V13.5317Z" fill="#333333"/>
<path d="M58.5385 33.0096C56.1549 33.0096 54.2156 34.9489 54.2156 37.3325C54.2156 39.7162 56.1549 41.6555 58.5385 41.6555C60.9222 41.6555 62.8615 39.7162 62.8615 37.3325C62.8615 34.9489 60.9222 33.0096 58.5385 33.0096ZM58.5385 39.457C57.367 39.457 56.4135 38.504 56.4135 37.3325C56.4135 36.161 57.367 35.2075 58.5385 35.2075C59.71 35.2075 60.663 36.161 60.663 37.3325C60.663 38.504 59.71 39.457 58.5385 39.457Z" fill="#333333"/>
<path d="M80.3845 41.6555C82.7675 41.6555 84.7069 39.7162 84.7069 37.3325C84.7069 34.9489 82.7675 33.0096 80.3845 33.0096C78.0008 33.0096 76.0615 34.9489 76.0615 37.3325C76.0615 39.7162 78.0008 41.6555 80.3845 41.6555ZM80.3845 35.2075C81.556 35.2075 82.509 36.161 82.509 37.3325C82.509 38.504 81.556 39.457 80.3845 39.457C79.213 39.457 78.2594 38.504 78.2594 37.3325C78.2594 36.161 79.2124 35.2075 80.3845 35.2075Z" fill="#333333"/>
<path d="M47.6159 33.0096C45.2323 33.0096 43.293 34.9489 43.293 37.3325C43.293 39.7162 45.2323 41.6555 47.6159 41.6555C49.999 41.6555 51.9383 39.7162 51.9383 37.3325C51.9383 34.9489 49.999 33.0096 47.6159 33.0096ZM47.6159 39.457C46.4439 39.457 45.4909 38.504 45.4909 37.3325C45.4909 36.161 46.4439 35.2075 47.6159 35.2075C48.7874 35.2075 49.7404 36.161 49.7404 37.3325C49.7404 38.504 48.7874 39.457 47.6159 39.457Z" fill="#333333"/>
<path d="M69.4613 33.0096C67.0782 33.0096 65.1389 34.9489 65.1389 37.3325C65.1389 39.7162 67.0782 41.6555 69.4613 41.6555C71.8449 41.6555 73.7843 39.7162 73.7843 37.3325C73.7843 34.9489 71.8449 33.0096 69.4613 33.0096ZM69.4613 39.457C68.2898 39.457 67.3368 38.504 67.3368 37.3325C67.3368 36.161 68.2898 35.2075 69.4613 35.2075C70.6328 35.2075 71.5864 36.161 71.5864 37.3325C71.5864 38.504 70.6328 39.457 69.4613 39.457Z" fill="#333333"/>
<path d="M91.3071 41.6555C93.6907 41.6555 95.63 39.7162 95.63 37.3325C95.63 34.9489 93.6907 33.0096 91.3071 33.0096C88.9234 33.0096 86.9841 34.9489 86.9841 37.3325C86.9841 39.7162 88.9234 41.6555 91.3071 41.6555ZM91.3071 35.2075C92.4786 35.2075 93.4316 36.161 93.4316 37.3325C93.4316 38.504 92.4786 39.457 91.3071 39.457C90.1356 39.457 89.182 38.504 89.182 37.3325C89.182 36.161 90.1356 35.2075 91.3071 35.2075Z" fill="#333333"/>
<path d="M36.6918 45.1722C34.3087 45.1722 32.3694 47.1116 32.3694 49.4952C32.3694 51.8788 34.3087 53.8176 36.6918 53.8176C39.0754 53.8176 41.0147 51.8788 41.0147 49.4952C41.0147 47.1116 39.0754 45.1722 36.6918 45.1722ZM36.6918 51.6197C35.5203 51.6197 34.5673 50.6667 34.5673 49.4952C34.5673 48.3237 35.5203 47.3701 36.6918 47.3701C37.8633 47.3701 38.8168 48.3237 38.8168 49.4952C38.8168 50.6667 37.8633 51.6197 36.6918 51.6197Z" fill="#333333"/>
<path d="M58.5385 45.1722C56.1549 45.1722 54.2156 47.1116 54.2156 49.4952C54.2156 51.8788 56.1549 53.8176 58.5385 53.8176C60.9222 53.8176 62.8615 51.8788 62.8615 49.4952C62.8615 47.1116 60.9222 45.1722 58.5385 45.1722ZM58.5385 51.6197C57.367 51.6197 56.4135 50.6667 56.4135 49.4952C56.4135 48.3237 57.367 47.3701 58.5385 47.3701C59.71 47.3701 60.663 48.3237 60.663 49.4952C60.663 50.6667 59.71 51.6197 58.5385 51.6197Z" fill="#333333"/>
<path d="M80.3845 53.8176C82.7675 53.8176 84.7069 51.8788 84.7069 49.4952C84.7069 47.1116 82.7675 45.1722 80.3845 45.1722C78.0008 45.1722 76.0615 47.1116 76.0615 49.4952C76.0615 51.8788 78.0008 53.8176 80.3845 53.8176ZM80.3845 47.3701C81.556 47.3701 82.509 48.3237 82.509 49.4952C82.509 50.6667 81.556 51.6197 80.3845 51.6197C79.213 51.6197 78.2594 50.6667 78.2594 49.4952C78.2594 48.3237 79.2124 47.3701 80.3845 47.3701Z" fill="#333333"/>
<path d="M47.6159 45.1722C45.2323 45.1722 43.293 47.1116 43.293 49.4952C43.293 51.8788 45.2323 53.8176 47.6159 53.8176C49.999 53.8176 51.9383 51.8788 51.9383 49.4952C51.9383 47.1116 49.999 45.1722 47.6159 45.1722ZM47.6159 51.6197C46.4439 51.6197 45.4909 50.6667 45.4909 49.4952C45.4909 48.3237 46.4439 47.3701 47.6159 47.3701C48.7874 47.3701 49.7404 48.3237 49.7404 49.4952C49.7404 50.6667 48.7874 51.6197 47.6159 51.6197Z" fill="#333333"/>
<path d="M69.4613 45.1722C67.0782 45.1722 65.1389 47.1116 65.1389 49.4952C65.1389 51.8788 67.0782 53.8176 69.4613 53.8176C71.8449 53.8176 73.7843 51.8788 73.7843 49.4952C73.7843 47.1116 71.8449 45.1722 69.4613 45.1722ZM69.4613 51.6197C68.2898 51.6197 67.3368 50.6667 67.3368 49.4952C67.3368 48.3237 68.2898 47.3701 69.4613 47.3701C70.6328 47.3701 71.5864 48.3237 71.5864 49.4952C71.5864 50.6667 70.6328 51.6197 69.4613 51.6197Z" fill="#333333"/>
<path d="M91.3071 53.8176C93.6907 53.8176 95.63 51.8788 95.63 49.4952C95.63 47.1116 93.6907 45.1722 91.3071 45.1722C88.9234 45.1722 86.9841 47.1116 86.9841 49.4952C86.9841 51.8788 88.9234 53.8176 91.3071 53.8176ZM91.3071 47.3701C92.4786 47.3701 93.4316 48.3237 93.4316 49.4952C93.4316 50.6667 92.4786 51.6197 91.3071 51.6197C90.1356 51.6197 89.182 50.6667 89.182 49.4952C89.182 48.3237 90.1356 47.3701 91.3071 47.3701Z" fill="#333333"/>
<path d="M36.6918 57.3349C34.3087 57.3349 32.3694 59.2742 32.3694 61.6573C32.3694 64.0409 34.3087 65.9802 36.6918 65.9802C39.0754 65.9802 41.0147 64.0409 41.0147 61.6573C41.0147 59.2742 39.0754 57.3349 36.6918 57.3349ZM36.6918 63.7823C35.5203 63.7823 34.5673 62.8293 34.5673 61.6573C34.5673 60.4858 35.5203 59.5328 36.6918 59.5328C37.8633 59.5328 38.8168 60.4858 38.8168 61.6573C38.8168 62.8293 37.8633 63.7823 36.6918 63.7823Z" fill="#333333"/>
<path d="M58.5385 57.3349C56.1549 57.3349 54.2156 59.2742 54.2156 61.6573C54.2156 64.0409 56.1549 65.9802 58.5385 65.9802C60.9222 65.9802 62.8615 64.0409 62.8615 61.6573C62.8615 59.2742 60.9222 57.3349 58.5385 57.3349ZM58.5385 63.7823C57.367 63.7823 56.4135 62.8293 56.4135 61.6573C56.4135 60.4858 57.367 59.5328 58.5385 59.5328C59.71 59.5328 60.663 60.4858 60.663 61.6573C60.663 62.8293 59.71 63.7823 58.5385 63.7823Z" fill="#333333"/>
<path d="M47.6159 57.3349C45.2323 57.3349 43.293 59.2742 43.293 61.6573C43.293 64.0409 45.2323 65.9802 47.6159 65.9802C49.999 65.9802 51.9383 64.0409 51.9383 61.6573C51.9383 59.2742 49.999 57.3349 47.6159 57.3349ZM47.6159 63.7823C46.4439 63.7823 45.4909 62.8293 45.4909 61.6573C45.4909 60.4858 46.4439 59.5328 47.6159 59.5328C48.7874 59.5328 49.7404 60.4858 49.7404 61.6573C49.7404 62.8293 48.7874 63.7823 47.6159 63.7823Z" fill="#333333"/>
<path d="M69.4613 57.3349C67.0782 57.3349 65.1389 59.2742 65.1389 61.6573C65.1389 64.0409 67.0782 65.9802 69.4613 65.9802C71.8449 65.9802 73.7843 64.0409 73.7843 61.6573C73.7843 59.2742 71.8449 57.3349 69.4613 57.3349ZM69.4613 63.7823C68.2898 63.7823 67.3368 62.8293 67.3368 61.6573C67.3368 60.4858 68.2898 59.5328 69.4613 59.5328C70.6328 59.5328 71.5864 60.4858 71.5864 61.6573C71.5864 62.8293 70.6328 63.7823 69.4613 63.7823Z" fill="#333333"/>
</g>
<defs>
<clipPath id="clip0">
<rect width="74" height="74" fill="white" transform="translate(27)"/>
</clipPath>
</defs>
</svg>
