<svg width="101" height="74" viewBox="0 0 101 74" fill="none" xmlns="http://www.w3.org/2000/svg">
<path fill-rule="evenodd" clip-rule="evenodd" d="M32 69C49.6731 69 64 54.6731 64 37C64 19.3269 49.6731 5 32 5C14.3269 5 0 19.3269 0 37C0 54.6731 14.3269 69 32 69Z" fill="#1CBAEB"/>
<g clip-path="url(#clip0)">
<path d="M73.4566 71.8021H37.2916V12.3631C37.2916 11.7561 36.7999 11.2638 36.193 11.2638C35.5855 11.2638 35.0938 11.7561 35.0938 12.3631V72.9008C35.0938 73.5077 35.5855 74 36.193 74H73.4566C74.0641 74 74.5559 73.5077 74.5559 72.9008C74.5559 72.2939 74.0636 71.8021 73.4566 71.8021Z" fill="#4F4F4F"/>
<path d="M92.6533 14.7817L78.1929 0.321815C77.9868 0.115746 77.7073 7.62939e-06 77.416 7.62939e-06H36.193C35.5855 7.62939e-06 35.0938 0.492317 35.0938 1.09924V7.96673C35.0938 8.57365 35.5855 9.06596 36.193 9.06596C36.7999 9.06596 37.2916 8.57365 37.2916 7.96673V2.1979H76.3162V15.5586C76.3162 16.1655 76.8085 16.6578 77.4154 16.6578H90.7767V71.8021H77.853C77.2461 71.8021 76.7543 72.2939 76.7543 72.9008C76.7543 73.5077 77.2461 74 77.853 74H91.8759C92.4828 74 92.9751 73.5077 92.9751 72.9008V15.5591C92.9751 15.2678 92.8594 14.9878 92.6533 14.7817ZM78.5147 3.75161L89.2224 14.4599H78.5147V3.75161Z" fill="#4F4F4F"/>
<path d="M71.1776 19.2938C71.7845 19.2938 72.2762 18.8015 72.2762 18.1946C72.2762 17.5876 71.7845 17.0959 71.1776 17.0959H56.891C56.2841 17.0959 55.7917 17.5876 55.7917 18.1946C55.7917 18.8015 56.2841 19.2938 56.891 19.2938H71.1776Z" fill="#4F4F4F"/>
<path d="M43.6331 26.7671C43.6331 27.374 44.1248 27.8663 44.7317 27.8663H83.3362C83.9432 27.8663 84.4349 27.374 84.4349 26.7671C84.4349 26.1602 83.9432 25.6678 83.3362 25.6678H44.7317C44.1248 25.6678 43.6331 26.1602 43.6331 26.7671Z" fill="#4F4F4F"/>
<path d="M44.7317 36.3332H83.3362C83.9432 36.3332 84.4349 35.8415 84.4349 35.2346C84.4349 34.6276 83.9432 34.1353 83.3362 34.1353H44.7317C44.1248 34.1353 43.6331 34.6276 43.6331 35.2346C43.6331 35.8415 44.1248 36.3332 44.7317 36.3332Z" fill="#4F4F4F"/>
<path d="M44.7317 44.8007H83.3362C83.9432 44.8007 84.4349 44.309 84.4349 43.7015C84.4349 43.0946 83.9432 42.6028 83.3362 42.6028H44.7317C44.1248 42.6028 43.6331 43.0946 43.6331 43.7015C43.6331 44.309 44.1248 44.8007 44.7317 44.8007Z" fill="#4F4F4F"/>
<path d="M74.4737 52.5309C74.0875 52.7686 73.8871 53.2191 73.9695 53.6651L76.1922 65.7538C76.2899 66.284 76.7517 66.6543 77.2717 66.6543C77.3378 66.6543 77.4049 66.6481 77.4721 66.6363C78.0689 66.5262 78.4641 65.9531 78.354 65.3564L77.7657 62.1564L81.593 59.7976L84.1872 61.7617C84.671 62.1276 85.3604 62.0327 85.7268 61.5489C86.0932 61.0645 85.9978 60.3757 85.5139 60.0093L75.7135 52.5902C75.3521 52.3164 74.8598 52.2927 74.4737 52.5309ZM79.7129 58.3743L77.3395 59.8371L76.6428 56.0505L79.7129 58.3743Z" fill="#4F4F4F"/>
<path d="M67.8306 59.05C67.8306 64.9081 72.5967 69.6737 78.4547 69.6737C84.3128 69.6737 89.0784 64.9081 89.0784 59.05C89.0784 53.192 84.3128 48.4259 78.4547 48.4259C72.5967 48.4259 67.8306 53.192 67.8306 59.05ZM86.8805 59.05C86.8805 63.6959 83.1006 67.4758 78.4547 67.4758C73.8083 67.4758 70.029 63.6959 70.029 59.05C70.029 54.4036 73.8083 50.6243 78.4547 50.6243C83.1006 50.6243 86.8805 54.4036 86.8805 59.05Z" fill="#4F4F4F"/>
</g>
<defs>
<clipPath id="clip0">
<rect width="74" height="74" fill="white" transform="translate(27)"/>
</clipPath>
</defs>
</svg>
