<svg width="101" height="74" viewBox="0 0 101 74" fill="none" xmlns="http://www.w3.org/2000/svg">
<path fill-rule="evenodd" clip-rule="evenodd" d="M32 69C49.6731 69 64 54.6731 64 37C64 19.3269 49.6731 5 32 5C14.3269 5 0 19.3269 0 37C0 54.6731 14.3269 69 32 69Z" fill="#1CBAEB"/>
<g clip-path="url(#clip0)">
<path d="M99.9008 0H42.4603C41.8534 0 41.3611 0.49231 41.3611 1.09923C41.3611 1.70615 41.8534 2.19789 42.4603 2.19789H98.8021V9.27145H29.1979V2.19789H38.064C38.6709 2.19789 39.1626 1.70615 39.1626 1.09923C39.1626 0.49231 38.6709 0 38.064 0H28.0992C27.4923 0 27 0.49231 27 1.09923V10.3701C27 10.977 27.4923 11.4693 28.0992 11.4693H31.2908V36.5393C29.0466 38.1952 27.5872 40.8566 27.5872 43.8534V52.2057C27.5872 55.2025 29.0466 57.8644 31.2908 59.5198V72.9008C31.2908 73.5077 31.7831 74 32.39 74H95.6094C96.2164 74 96.7087 73.5077 96.7087 72.9008V59.5203C98.9529 57.8644 100.412 55.203 100.412 52.2057V43.8534C100.412 40.8566 98.9529 38.1946 96.7087 36.5387V25.1705C96.7087 24.5635 96.2164 24.0712 95.6094 24.0712C95.0025 24.0712 94.5102 24.5635 94.5102 25.1705V35.3452C93.5194 34.9732 92.4467 34.7682 91.3271 34.7682C86.3177 34.7682 82.242 38.8439 82.242 43.8534V52.2057C82.242 56.8431 85.7356 60.6777 90.2285 61.222V71.8021H74.7264V47.4283H77.0298C77.6367 47.4283 78.1291 46.9365 78.1291 46.3296V41.3354C78.1291 40.7285 77.6367 40.2361 77.0298 40.2361H50.9696C50.3627 40.2361 49.8704 40.7285 49.8704 41.3354V46.3296C49.8704 46.9365 50.3627 47.4283 50.9696 47.4283H53.2731V63.7089C53.2731 64.3158 53.7654 64.8082 54.3723 64.8082C54.9792 64.8082 55.471 64.3158 55.471 63.7089V47.4283H62.9008V58.0395H61.2522C60.6453 58.0395 60.1535 58.5312 60.1535 59.1381C60.1535 59.745 60.6453 60.2374 61.2522 60.2374H62.9008V71.8021H55.471V68.1053C55.471 67.4984 54.9792 67.006 54.3723 67.006C53.7654 67.006 53.2731 67.4984 53.2731 68.1053V71.8021H37.7715V61.222C42.2644 60.6777 45.7574 56.8431 45.7574 52.2057V43.8534C45.7574 38.8439 41.6818 34.7682 36.6723 34.7682C35.5527 34.7682 34.4801 34.9732 33.4892 35.3452V11.4693H94.5102V20.7741C94.5102 21.381 95.0025 21.8733 95.6094 21.8733C96.2164 21.8733 96.7087 21.381 96.7087 20.7741V11.4693H99.9008C100.508 11.4693 101 10.977 101 10.3701V1.09923C101 0.49231 100.508 0 99.9008 0V0ZM84.4404 52.2057V43.8534C84.4404 40.056 87.5298 36.9661 91.3271 36.9661C95.125 36.9661 98.2144 40.056 98.2144 43.8534V52.2057C98.2144 56.0036 95.125 59.093 91.3271 59.093C87.5298 59.093 84.4404 56.0036 84.4404 52.2057ZM92.4264 61.222C93.1507 61.1345 93.8491 60.9623 94.5102 60.7144V71.8021H92.4264V61.222ZM54.3723 45.2304H52.0683V42.434H75.9306V45.2304H54.3723ZM65.0987 60.2374H66.7472C67.3541 60.2374 67.8459 59.745 67.8459 59.1381C67.8459 58.5312 67.3541 58.0395 66.7472 58.0395H65.0987V47.4283H72.5285V71.8021H65.0987V60.2374ZM33.4892 71.8021V60.7139C34.1509 60.9623 34.8493 61.1345 35.5736 61.222V71.8021H33.4892ZM36.6723 36.9661C40.4702 36.9661 43.5596 40.056 43.5596 43.8534V52.2057C43.5596 56.0036 40.4702 59.093 36.6723 59.093C32.875 59.093 29.785 56.0036 29.785 52.2057V43.8534C29.785 40.056 32.875 36.9661 36.6723 36.9661Z" fill="#333333"/>
<path d="M38.5619 15.3265C37.955 15.3265 37.4626 15.8188 37.4626 16.4258V30.9811C37.4626 31.588 37.955 32.0797 38.5619 32.0797H46.8713C47.4782 32.0797 47.97 31.588 47.97 30.9811V16.4258C47.97 15.8188 47.4782 15.3265 46.8713 15.3265H38.5619ZM45.7721 29.8819H39.6611V17.5244H45.7721V29.8819Z" fill="#333333"/>
<path d="M52.7508 15.3265C52.1439 15.3265 51.6516 15.8188 51.6516 16.4258V30.9811C51.6516 31.588 52.1439 32.0797 52.7508 32.0797H61.0597C61.6666 32.0797 62.1589 31.588 62.1589 30.9811V16.4258C62.1589 15.8188 61.6666 15.3265 61.0597 15.3265H52.7508ZM59.961 29.8819H53.8501V17.5244H59.961V29.8819Z" fill="#333333"/>
<path d="M66.9398 15.3265C66.3323 15.3265 65.8406 15.8188 65.8406 16.4258V30.9811C65.8406 31.588 66.3323 32.0797 66.9398 32.0797H75.2487C75.8556 32.0797 76.3479 31.588 76.3479 30.9811V16.4258C76.3479 15.8188 75.8556 15.3265 75.2487 15.3265H66.9398ZM74.15 29.8819H68.0385V17.5244H74.15V29.8819Z" fill="#333333"/>
<path d="M81.128 15.3265C80.521 15.3265 80.0293 15.8188 80.0293 16.4258V30.9811C80.0293 31.588 80.521 32.0797 81.128 32.0797H89.4374C90.0443 32.0797 90.536 31.588 90.536 30.9811V16.4258C90.536 15.8188 90.0443 15.3265 89.4374 15.3265H81.128ZM88.3382 29.8819H82.2272V17.5244H88.3382V29.8819Z" fill="#333333"/>
</g>
<defs>
<clipPath id="clip0">
<rect width="74" height="74" fill="white" transform="translate(27)"/>
</clipPath>
</defs>
</svg>
