<svg width="101" height="74" viewBox="0 0 101 74" fill="none" xmlns="http://www.w3.org/2000/svg">
<path fill-rule="evenodd" clip-rule="evenodd" d="M32 69C49.6731 69 64 54.6731 64 37C64 19.3269 49.6731 5 32 5C14.3269 5 0 19.3269 0 37C0 54.6731 14.3269 69 32 69Z" fill="#1CBAEB"/>
<path d="M90.6942 11.3796C90.2742 10.9415 89.5781 10.9279 89.1405 11.348C88.703 11.768 88.6889 12.4641 89.1089 12.9017C95.3593 19.4129 98.8021 27.9713 98.8021 37C98.8021 46.2957 95.1821 55.0354 88.6087 61.6087C82.0354 68.1821 73.2957 71.8021 64 71.8021C54.7043 71.8021 45.9646 68.1821 39.3913 61.6087C32.8179 55.0354 29.1979 46.2957 29.1979 37C29.1979 27.7043 32.8179 18.9646 39.3913 12.3913C45.9646 5.81795 54.7043 2.19789 64 2.19789C72.1485 2.19789 80.0729 5.07214 86.3131 10.2911C86.7789 10.6806 87.4716 10.6185 87.8612 10.1533C88.2502 9.68755 88.1887 8.99425 87.7229 8.60526C81.088 3.05605 72.6634 0 64 0C54.1171 0 44.8253 3.84871 37.837 10.837C30.8487 17.8253 27 27.1171 27 37C27 46.8829 30.8487 56.1747 37.837 63.163C44.8253 70.1513 54.1171 74 64 74C73.8829 74 83.1747 70.1513 90.163 63.163C97.1513 56.1747 101 46.8829 101 37C101 27.4011 97.3399 18.3024 90.6942 11.3796Z" fill="#333333"/>
<path d="M46.5159 58.7102C46.154 59.1974 46.2551 59.8856 46.7423 60.2481C51.7608 63.9794 57.7289 65.9514 64.0002 65.9514C79.9642 65.9514 92.9517 52.9639 92.9517 37C92.9517 21.0361 79.9642 8.04858 64.0002 8.04858C48.0363 8.04858 35.0488 21.0361 35.0488 37C35.0488 44.7669 38.0829 52.0595 43.5914 57.5347C44.0222 57.9627 44.7177 57.9604 45.1457 57.5302C45.5736 57.0994 45.5714 56.4039 45.1412 55.9759C40.0504 50.9162 37.2467 44.1769 37.2467 37C37.2467 22.2482 49.2485 10.2465 64.0002 10.2465C78.752 10.2465 90.7538 22.2482 90.7538 37C90.7538 51.7518 78.7526 63.7535 64.0002 63.7535C58.2049 63.7535 52.6907 61.9311 48.0538 58.4838C47.5666 58.1219 46.8784 58.2229 46.5159 58.7102Z" fill="#333333"/>
<path d="M63.58 14.0229C64.0266 14.2019 64.5488 14.0754 64.8531 13.6994C65.1535 13.3285 65.1783 12.7961 64.9135 12.3981C64.367 11.5761 63.0572 11.877 62.9138 12.8492C62.841 13.3404 63.121 13.8338 63.58 14.0229Z" fill="#333333"/>
<path d="M64.9135 60.3824C64.3743 59.5621 63.0538 59.8596 62.9132 60.8307C62.7765 61.7769 63.8803 62.4476 64.6543 61.8752C65.1212 61.5296 65.2319 60.8646 64.9135 60.3824Z" fill="#333333"/>
<path d="M51.5837 17.2365C52.5045 17.6249 53.431 16.616 52.9855 15.7285C52.7919 15.3429 52.3769 15.1041 51.9461 15.125C51.4595 15.1487 51.0389 15.5078 50.9327 15.9809C50.8164 16.4986 51.0964 17.031 51.5837 17.2365Z" fill="#333333"/>
<path d="M76.9101 57.1672C76.3715 56.3785 75.108 56.6168 74.9189 57.563C74.719 58.564 75.9328 59.2776 76.7097 58.6137C77.1286 58.2563 77.2127 57.6257 76.9101 57.1672Z" fill="#333333"/>
<path d="M43.9989 24.2265C43.6393 23.8668 43.064 23.8053 42.6355 24.0757C42.2634 24.3106 42.0641 24.7589 42.1404 25.1919C42.2183 25.6357 42.5649 25.9908 43.007 26.0817C43.4519 26.1726 43.9233 25.9642 44.1598 25.5775C44.4212 25.1496 44.3535 24.5805 43.9989 24.2265Z" fill="#333333"/>
<path d="M83.7008 49.2106C83.882 50.1681 85.1918 50.3968 85.7061 49.5832C86.2402 48.7392 85.4086 47.6558 84.459 47.9449C83.9283 48.1063 83.5873 48.6641 83.7008 49.2106Z" fill="#333333"/>
<path d="M40.9217 36.3903C40.4017 35.5999 39.1512 35.8409 38.9378 36.7522C38.8294 37.2146 39.0445 37.7086 39.4527 37.9479C39.8439 38.1772 40.3481 38.1371 40.7004 37.8537C41.1379 37.5019 41.2283 36.856 40.9217 36.3903Z" fill="#333333"/>
<path d="M87.5722 38.0151C88.0188 38.1941 88.5405 38.0682 88.8454 37.6916C89.1322 37.3376 89.1672 36.8295 88.9357 36.4377C88.4315 35.5852 87.0969 35.8279 86.9134 36.7962C86.818 37.3009 87.0974 37.8192 87.5722 38.0151Z" fill="#333333"/>
<path d="M44.2378 48.576C44.0594 48.1526 43.6292 47.876 43.1685 47.8985C42.7106 47.9206 42.3036 48.2384 42.1715 48.6771C41.8768 49.6544 43.011 50.4792 43.8499 49.8971C44.2711 49.6047 44.4275 49.0503 44.2378 48.576Z" fill="#333333"/>
<path d="M83.7641 25.4234C83.929 25.8463 84.3738 26.1207 84.8238 26.1026C85.2755 26.0845 85.6797 25.7768 85.8208 25.3483C86.1308 24.4032 85.0688 23.5479 84.2135 24.0616C83.7539 24.3372 83.5541 24.9277 83.7641 25.4234Z" fill="#333333"/>
<path d="M52.9179 57.1672C52.6842 56.8245 52.2687 56.6325 51.8554 56.689C51.3648 56.7556 50.9758 57.1542 50.9137 57.6437C50.8595 58.0694 51.0712 58.4996 51.4393 58.7198C51.8599 58.9716 52.4115 58.91 52.7649 58.5702C53.1449 58.2049 53.2075 57.607 52.9179 57.1672Z" fill="#333333"/>
<path d="M75.0832 16.8322C75.6241 17.6548 76.9384 17.3517 77.0824 16.3834C77.2297 15.3988 76.0413 14.7461 75.2853 15.3835C74.8676 15.7364 74.7727 16.3783 75.0832 16.8322Z" fill="#333333"/>
<path d="M49.8042 54.8434C50.0069 55.0043 50.248 55.0822 50.4879 55.0822C50.8114 55.0822 51.1321 54.9405 51.3489 54.6678L60.4532 43.2227C61.4999 43.8218 62.7104 44.1662 63.9999 44.1662C66.2288 44.1662 68.2229 43.1431 69.5378 41.5426H76.1631C78.6675 41.5426 80.7057 39.5045 80.7057 37C80.7057 34.495 78.6675 32.4574 76.1631 32.4574H69.5378C69.2397 32.0944 68.906 31.7607 68.543 31.4626V20.8475C68.543 18.343 66.5055 16.3049 64.0004 16.3049C61.4954 16.3049 59.4579 18.343 59.4579 20.8475V31.4621C57.8567 32.777 56.8343 34.7711 56.8343 37C56.8343 38.871 57.5558 40.576 58.7341 41.8537L49.6286 53.2993C49.2509 53.7741 49.3294 54.4657 49.8042 54.8434ZM76.1625 34.6553C77.4554 34.6553 78.5072 35.7071 78.5072 37C78.5072 38.2923 77.4554 39.3447 76.1625 39.3447H70.7703C71.0255 38.609 71.166 37.8209 71.166 37C71.166 36.1791 71.0255 35.3904 70.7703 34.6553H76.1625ZM61.6558 20.8475C61.6558 19.5546 62.7076 18.5028 64.0004 18.5028C65.2933 18.5028 66.3451 19.5546 66.3451 20.8475V30.2302C65.6095 29.9744 64.8213 29.8338 63.9999 29.8338C63.179 29.8338 62.3908 29.9744 61.6558 30.2296V20.8475ZM63.9999 32.0323C66.7392 32.0323 68.9676 34.2607 68.9676 37C68.9676 39.7393 66.7392 41.9677 63.9999 41.9677C61.2606 41.9677 59.0322 39.7393 59.0322 37C59.0322 34.2607 61.2606 32.0323 63.9999 32.0323Z" fill="#333333"/>
</svg>
