<svg width="101" height="74" viewBox="0 0 101 74" fill="none" xmlns="http://www.w3.org/2000/svg">
<path fill-rule="evenodd" clip-rule="evenodd" d="M32 69C49.6731 69 64 54.6731 64 37C64 19.3269 49.6731 5 32 5C14.3269 5 0 19.3269 0 37C0 54.6731 14.3269 69 32 69Z" fill="#1CBAEB"/>
<g clip-path="url(#clip0)">
<path d="M85.5103 42.9742H81.4448V40.9593C82.6631 40.7216 83.7878 40.0994 84.6357 39.1707C85.7372 37.9648 86.2837 36.3405 86.1358 34.714L84.4184 15.8278C84.3636 15.2232 83.8278 14.7766 83.2249 14.8325C82.6202 14.8878 82.1748 15.4219 82.2295 16.0266L83.947 34.9127C84.0401 35.9408 83.7087 36.9265 83.0126 37.6887C82.3165 38.4509 81.3646 38.8709 80.3314 38.8709H54.348C53.3154 38.8709 52.3636 38.4509 51.6669 37.6887C50.9713 36.9265 50.6393 35.9408 50.7331 34.9127L50.9995 31.9837H68.4884C70.9527 31.9837 72.9575 29.9789 72.9575 27.5145C72.9575 25.0501 70.9527 23.0453 68.4884 23.0453H51.812L53.4075 5.49951C53.5796 3.61722 55.1339 2.19788 57.0224 2.19788H77.6576C79.5461 2.19788 81.1004 3.61722 81.2726 5.49951L81.8134 11.449C81.8682 12.0536 82.4034 12.4991 83.0075 12.4438C83.6116 12.389 84.0571 11.8544 84.0023 11.2503L83.4614 5.29965C83.1853 2.27805 80.6899 -7.62939e-06 77.6576 -7.62939e-06H57.0224C53.9901 -7.62939e-06 51.4947 2.27805 51.2186 5.30021L49.605 23.0453H49.1698C47.0842 23.0453 45.3284 24.4811 44.8378 26.4158H42.1041C40.9518 26.4158 39.8577 26.9149 39.1023 27.7855C38.3469 28.6555 38.0064 29.8095 38.1685 30.9505L40.0965 44.5099C40.4234 46.8088 42.4203 48.5426 44.7424 48.5426H44.8378C45.3284 50.4774 47.0848 51.9126 49.1698 51.9126H50.3051V72.9012C50.3051 73.5081 50.7974 73.9998 51.4043 73.9998H56.9727C57.5797 73.9998 58.0714 73.5081 58.0714 72.9012V58.386H76.6081V72.9012C76.6081 73.5081 77.1004 73.9998 77.7073 73.9998H83.2757C83.8826 73.9998 84.3743 73.5081 84.3743 72.9012V51.9126H85.5103C87.9746 51.9126 89.9794 49.9078 89.9794 47.4434C89.9794 44.979 87.9746 42.9742 85.5103 42.9742ZM79.2469 41.0694V42.9742H55.4331V41.0694H79.2469ZM49.1698 25.2432H68.4884C69.7406 25.2432 70.7596 26.2623 70.7596 27.5145C70.7596 28.7673 69.7406 29.7858 68.4884 29.7858H49.1698C47.9175 29.7858 46.8985 28.7673 46.8985 27.5145C46.8985 26.2623 47.9175 25.2432 49.1698 25.2432ZM44.8372 46.3442H44.7424C43.5082 46.3442 42.4462 45.4228 42.2724 44.2005L40.3449 30.6411C40.2709 30.1234 40.4194 29.6209 40.7621 29.2257C41.1048 28.8311 41.5813 28.6137 42.1041 28.6137H44.8372C45.2985 30.4305 46.8759 31.8064 48.7938 31.9667L48.5442 34.714C48.3963 36.3405 48.9428 37.9648 50.0437 39.1707C50.8917 40.0994 52.0169 40.7216 53.2347 40.9593V42.9737H49.1692C47.0842 42.9742 45.3284 44.4094 44.8372 46.3442ZM55.8735 71.802H52.5036V51.9126H55.8735V71.802ZM82.1765 71.802H78.8065V51.9126H82.1765V71.802ZM85.5103 49.7147H64.7238C64.1169 49.7147 63.6245 50.2064 63.6245 50.8134C63.6245 51.4208 64.1169 51.9126 64.7238 51.9126H76.6081V56.1881H58.0714V51.9126H60.3274C60.9344 51.9126 61.4267 51.4208 61.4267 50.8134C61.4267 50.2064 60.9344 49.7147 60.3274 49.7147H49.1698C47.9175 49.7147 46.8985 48.6956 46.8985 47.4434C46.8985 46.1906 47.9175 45.1721 49.1698 45.1721H85.5103C86.7625 45.1721 87.7815 46.1906 87.7815 47.4434C87.7815 48.6956 86.7625 49.7147 85.5103 49.7147Z" fill="#333333"/>
</g>
<defs>
<clipPath id="clip0">
<rect width="74" height="74" fill="white" transform="translate(27)"/>
</clipPath>
</defs>
</svg>
