<svg xmlns="http://www.w3.org/2000/svg" width="1748.474" height="664.188" viewBox="0 0 1748.474 664.188">
  <path id="bg-item2" d="M1243.5,0c421.671,0,462.507,1.723,459.048,72.161-2.154,43.878,0,133.655,0,208.909,0,142.317,47.576,63.561,7.263,79.355-11.795,4.622,14.947,21.533-7.263,54.452-5.249,7.786-2.438-65.831,0,17.88,0,53.64-1.227,38.806,0,90.263-.379,19.3,47.158,59.437,45.9,91.852-1.2,30.867-50.25,54.44-106.463,48.352C962.337,589.618,0,495.708,0,353,0,158.044,556.734,0,1243.5,0Z" fill="#2ca5eb"/>
</svg>
