<svg xmlns="http://www.w3.org/2000/svg" width="77.512" height="65.51" viewBox="0 0 77.512 65.51">
  <g id="email" transform="translate(-1 -5)">
    <path id="Path_277" data-name="Path 277" d="M75.142,5H4.37A3.409,3.409,0,0,0,1,8.448V67.062A3.409,3.409,0,0,0,4.37,70.51H75.142a3.409,3.409,0,0,0,3.37-3.448V8.448A3.409,3.409,0,0,0,75.142,5ZM69.517,16.637,40.871,42.5a1.659,1.659,0,0,1-2.231,0L9.995,16.637A1.75,1.75,0,0,1,9.846,14.2a1.658,1.658,0,0,1,2.379-.153L39.756,38.9l27.53-24.852a1.658,1.658,0,0,1,2.379.153A1.752,1.752,0,0,1,69.517,16.637Z" fill="#fff"/>
  </g>
</svg>
