<svg xmlns="http://www.w3.org/2000/svg" width="225.624" height="226.019" viewBox="0 0 225.624 226.019">
  <g id="globalw" transform="translate(0 0)">
    <path id="Path_287" data-name="Path 287" d="M241.621,36.8C235.965,22.126,228.855,9.765,220.685.288Q216.66,0,212.587,0t-8.1.288c-8.172,9.477-15.282,21.836-20.936,36.514q-2.739,7.108-4.925,14.707h67.917q-2.188-7.584-4.925-14.707Zm0,0" transform="translate(-99.774)" fill="#fff"/>
    <path id="Path_288" data-name="Path 288" d="M164.908,312.635h74.561a227.94,227.94,0,0,0,4.9-41.635H160.012a227.926,227.926,0,0,0,4.9,41.635Zm0,0" transform="translate(-89.375 -151.368)" fill="#fff"/>
    <path id="Path_289" data-name="Path 289" d="M239.468,146.684H164.908a227.941,227.941,0,0,0-4.9,41.635h84.352a227.924,227.924,0,0,0-4.9-41.635Zm0,0" transform="translate(-89.376 -81.931)" fill="#fff"/>
    <path id="Path_290" data-name="Path 290" d="M183.552,410.024c5.656,14.676,12.766,27.037,20.936,36.514q4.025.285,8.1.288t8.1-.288c8.17-9.477,15.28-21.836,20.934-36.514q2.739-7.108,4.925-14.707H178.629q2.186,7.584,4.923,14.707Zm0,0" transform="translate(-99.774 -220.806)" fill="#fff"/>
    <path id="Path_291" data-name="Path 291" d="M370.594,146.671a242.656,242.656,0,0,1,4.639,41.635h57.389a112.27,112.27,0,0,0-10.564-41.646c-.064,0-.126.01-.19.01Zm0,0" transform="translate(-206.997 -81.918)" fill="#fff"/>
    <path id="Path_292" data-name="Path 292" d="M62.03,312.635A242.482,242.482,0,0,1,57.39,271H0a112.269,112.269,0,0,0,10.564,41.646c.064,0,.126-.01.19-.01Zm0,0" transform="translate(0 -151.368)" fill="#fff"/>
    <path id="Path_293" data-name="Path 293" d="M337.1,395.316c-4.93,18.384-12.041,34.864-20.908,48.331a112.286,112.286,0,0,0,53.141-29.922,114.025,114.025,0,0,0,14.935-18.41Zm0,0" transform="translate(-176.611 -220.806)" fill="#fff"/>
    <path id="Path_294" data-name="Path 294" d="M87.87,55.531C92.8,37.147,99.912,20.667,108.779,7.2A112.308,112.308,0,0,0,55.636,37.122,114.108,114.108,0,0,0,40.7,55.531Zm0,0" transform="translate(-22.735 -4.022)" fill="#fff"/>
    <path id="Path_295" data-name="Path 295" d="M87.87,395.316H40.7a114.108,114.108,0,0,0,14.933,18.41,112.3,112.3,0,0,0,53.141,29.922C99.912,430.18,92.8,413.7,87.87,395.316Zm0,0" transform="translate(-22.735 -220.806)" fill="#fff"/>
    <path id="Path_296" data-name="Path 296" d="M337.1,55.531h47.167a114.015,114.015,0,0,0-14.933-18.41A112.3,112.3,0,0,0,316.192,7.2c8.867,13.467,15.978,29.947,20.908,48.331Zm0,0" transform="translate(-176.611 -4.021)" fill="#fff"/>
    <path id="Path_297" data-name="Path 297" d="M375.233,271a242.486,242.486,0,0,1-4.639,41.635h51.275c.064,0,.126.009.19.01A112.269,112.269,0,0,0,432.622,271Zm0,0" transform="translate(-206.997 -151.369)" fill="#fff"/>
    <path id="Path_298" data-name="Path 298" d="M57.39,188.306a242.483,242.483,0,0,1,4.64-41.635H10.754c-.064,0-.126-.009-.19-.01A112.269,112.269,0,0,0,0,188.306Zm0,0" transform="translate(0 -81.918)" fill="#fff"/>
  </g>
</svg>
