<svg xmlns="http://www.w3.org/2000/svg" width="22.593" height="22.593" viewBox="0 0 22.593 22.593">
  <g id="instagram_1_" data-name="instagram (1)" transform="translate(0 0)">
    <path id="Path_109" data-name="Path 109" d="M22.525,6.639A8.293,8.293,0,0,0,22,3.9a5.537,5.537,0,0,0-1.3-2,5.538,5.538,0,0,0-2-1.3A8.292,8.292,0,0,0,15.954.068C14.749.013,14.364,0,11.3,0S7.844.013,6.639.068A8.294,8.294,0,0,0,3.9.593a5.537,5.537,0,0,0-2,1.3,5.538,5.538,0,0,0-1.3,2A8.293,8.293,0,0,0,.068,6.639C.013,7.844,0,8.228,0,11.3s.013,3.453.068,4.658A8.291,8.291,0,0,0,.593,18.7a5.536,5.536,0,0,0,1.3,2,5.535,5.535,0,0,0,2,1.3,8.289,8.289,0,0,0,2.742.525c1.2.055,1.59.068,4.658.068s3.453-.013,4.658-.068A8.29,8.29,0,0,0,18.7,22,5.775,5.775,0,0,0,22,18.7a8.291,8.291,0,0,0,.525-2.742c.055-1.2.068-1.59.068-4.658s-.013-3.453-.068-4.658Zm-2.033,9.222a6.25,6.25,0,0,1-.389,2.1A3.741,3.741,0,0,1,17.959,20.1a6.25,6.25,0,0,1-2.1.389c-1.191.054-1.548.066-4.565.066s-3.374-.011-4.565-.066a6.252,6.252,0,0,1-2.1-.389,3.5,3.5,0,0,1-1.3-.845,3.5,3.5,0,0,1-.845-1.3,6.25,6.25,0,0,1-.389-2.1c-.054-1.191-.066-1.548-.066-4.565s.012-3.374.066-4.565a6.255,6.255,0,0,1,.389-2.1,3.5,3.5,0,0,1,.845-1.3,3.5,3.5,0,0,1,1.3-.845,6.249,6.249,0,0,1,2.1-.389c1.191-.054,1.548-.066,4.565-.066h0c3.016,0,3.374.012,4.565.066a6.251,6.251,0,0,1,2.1.389,3.5,3.5,0,0,1,1.3.845,3.5,3.5,0,0,1,.845,1.3,6.245,6.245,0,0,1,.389,2.1c.054,1.191.066,1.548.066,4.565s-.011,3.374-.066,4.565Zm0,0" transform="translate(0 0)" fill="#2a2a2a"/>
    <path id="Path_110" data-name="Path 110" d="M130.34,124.539a5.8,5.8,0,1,0,5.8,5.8A5.8,5.8,0,0,0,130.34,124.539Zm0,9.566a3.766,3.766,0,1,1,3.766-3.766A3.766,3.766,0,0,1,130.34,134.105Zm0,0" transform="translate(-119.044 -119.044)" fill="#2a2a2a"/>
    <path id="Path_111" data-name="Path 111" d="M364.641,89.981a1.356,1.356,0,1,1-1.356-1.356A1.356,1.356,0,0,1,364.641,89.981Zm0,0" transform="translate(-345.959 -84.715)" fill="#2a2a2a"/>
  </g>
</svg>
