<svg id="languagee" xmlns="http://www.w3.org/2000/svg" width="13.742" height="13.742" viewBox="0 0 13.742 13.742">
  <g id="Group_340" data-name="Group 340" transform="translate(3.229 3.677)">
    <g id="Group_339" data-name="Group 339">
      <path id="Path_265" data-name="Path 265" d="M120.787,137h-.172l-.322,1.61h.816Z" transform="translate(-120.293 -137)" fill="#c3c3c3"/>
    </g>
  </g>
  <g id="Group_342" data-name="Group 342" transform="translate(10.236 6.898)">
    <g id="Group_341" data-name="Group 341">
      <path id="Path_266" data-name="Path 266" d="M381.374,257a4.207,4.207,0,0,0,.661,1.167,4.248,4.248,0,0,0,.688-1.167Z" transform="translate(-381.374 -257)" fill="#c3c3c3"/>
    </g>
  </g>
  <g id="Group_344" data-name="Group 344" transform="translate(6.513 2.442)">
    <g id="Group_343" data-name="Group 343">
      <path id="Path_267" data-name="Path 267" d="M248.684,91h-5l1.043,8.365a1.25,1.25,0,0,1-.3.916l-1.765,2.018h6.021a1.209,1.209,0,0,0,1.208-1.208V92.235A1.232,1.232,0,0,0,248.684,91Zm0,4.455h-.108a5.108,5.108,0,0,1-.97,1.763c.3.27.612.492.926.741a.4.4,0,1,1-.5.628c-.342-.27-.662-.5-.983-.79-.321.294-.615.52-.956.79a.4.4,0,0,1-.5-.628c.314-.248.6-.47.9-.741a5.081,5.081,0,0,1-.943-1.763h-.108a.4.4,0,0,1,0-.805h1.208v-.4a.4.4,0,1,1,.805,0v.4h1.235a.4.4,0,0,1,0,.805Z" transform="translate(-242.663 -91)" fill="#c3c3c3"/>
    </g>
  </g>
  <g id="Group_346" data-name="Group 346">
    <g id="Group_345" data-name="Group 345">
      <path id="Path_268" data-name="Path 268" d="M6.553,1.058A1.209,1.209,0,0,0,5.355,0H1.208A1.209,1.209,0,0,0,0,1.208v8.911a1.209,1.209,0,0,0,1.208,1.208H7.557c.117-.134.216-.218.22-.394C7.778,10.889,6.559,1.1,6.553,1.058ZM4.937,7.695a.4.4,0,0,1-.474-.316L4.206,6.092H3.068L2.81,7.379a.4.4,0,0,1-.789-.158L2.826,3.2a.4.4,0,0,1,.395-.324h.832a.4.4,0,0,1,.395.324l.805,4.026A.4.4,0,0,1,4.937,7.695Z" fill="#c3c3c3"/>
    </g>
  </g>
  <g id="Group_348" data-name="Group 348" transform="translate(4.704 12.131)">
    <g id="Group_347" data-name="Group 347">
      <path id="Path_269" data-name="Path 269" d="M175.261,452l.069.552a1.218,1.218,0,0,0,.7.936L177.378,452h-2.117Z" transform="translate(-175.261 -452)" fill="#c3c3c3"/>
    </g>
  </g>
</svg>
