<svg xmlns="http://www.w3.org/2000/svg" xmlns:xlink="http://www.w3.org/1999/xlink" width="30" height="42" viewBox="0 0 30 42">
  <defs>
    <clipPath id="clip-stars">
      <rect width="30" height="42"/>
    </clipPath>
  </defs>
  <g id="stars" clip-path="url(#clip-stars)">
    <path id="star" d="M31.294,37.406a1.3,1.3,0,0,1-.74-.231c-.114-.081-4.158-3.009-5.247-3.8l-5.238,3.791a1.311,1.311,0,0,1-.749.237,1.3,1.3,0,0,1-1.3-1.294,1.373,1.373,0,0,1,.075-.436l.008-.023c.056-.156,1.376-4.181,1.994-6.069-1.625-1.181-5.094-3.7-5.236-3.8A1.31,1.31,0,0,1,15.6,23.4h6.5l1.977-6.073a1.293,1.293,0,0,1,2.484.017l1.98,6.056h6.5a1.31,1.31,0,0,1,.725,2.38c-.149.1-3.617,2.62-5.241,3.8.619,1.89,1.94,5.918,2,6.079a1.382,1.382,0,0,1,.08.449A1.3,1.3,0,0,1,31.294,37.406Zm-5.987-5.118.261.188c1.859,1.346,5.4,3.91,5.495,3.978a.411.411,0,0,0,.642-.342.5.5,0,0,0-.029-.156c-.033-.082-1.483-4.506-2.1-6.4l-.1-.3.259-.188c.55-.4,5.382-3.91,5.522-4a.415.415,0,0,0,.17-.339.421.421,0,0,0-.393-.434h-7.14L25.7,17.6a.412.412,0,0,0-.4-.317.406.406,0,0,0-.392.3l-2.18,6.7H15.6a.427.427,0,0,0-.4.439.414.414,0,0,0,.176.34c.133.089,4.964,3.6,5.514,4l.259.188-.1.3c-.6,1.837-1.978,6.039-2.1,6.4h0a.506.506,0,0,0-.03.158.411.411,0,0,0,.647.338Z" transform="translate(-14.308 -16.406)" fill="#2ca5eb"/>
    <path id="star2" d="M42.95,41.034a.885.885,0,0,0-.853.648l-2.163,6.656h-7.1a.905.905,0,0,0-.88.918.892.892,0,0,0,.38.731c.142.1,5.738,4.168,5.738,4.168s-2.149,6.574-2.191,6.679a.99.99,0,0,0-.055.31.889.889,0,0,0,.889.89.9.9,0,0,0,.509-.16L42.95,57.72s5.6,4.063,5.729,4.155a.889.889,0,0,0,1.4-.731.973.973,0,0,0-.055-.31c-.041-.1-2.19-6.679-2.19-6.679s5.6-4.072,5.738-4.168a.909.909,0,0,0-.491-1.648h-7.1L43.8,41.682A.884.884,0,0,0,42.95,41.034Z" transform="translate(-31.95 -20.034)" fill="#2ca5eb" fill-rule="evenodd"/>
  </g>
</svg>
